<?xml version="1.0" standalone="no"?>
<!DOCTYPE svg PUBLIC "-//W3C//DTD SVG 20010904//EN"
 "http://www.w3.org/TR/2001/REC-SVG-20010904/DTD/svg10.dtd">
<svg version="1.0" xmlns="http://www.w3.org/2000/svg"
 width="2988.000000pt" height="2988.000000pt" viewBox="0 0 2988.000000 2988.000000"
 preserveAspectRatio="xMidYMid meet">
<metadata>
Created by potrace 1.11, written by Peter Selinger 2001-2013
</metadata>
<g transform="translate(0.000000,2988.000000) scale(0.100000,-0.100000)"
fill="#000000" stroke="none">
<path d="M4330 25550 l-3260 -3258 3677 -3677 c2023 -2022 3685 -3680 3693
-3685 8 -5 12 -11 10 -14 -20 -22 -839 -841 -3885 -3885 l-3495 -3494 1627
-1627 c896 -895 2363 -2361 3260 -3258 l1633 -1632 3686 3685 c2028 2027 3690
3685 3694 3685 4 0 1666 -1658 3694 -3685 l3686 -3684 1624 1622 c892 892
2359 2358 3259 3258 l1637 1636 -3310 3309 c-4173 4171 -3996 3994 -3993 3994
1 0 -16 17 -38 38 l-40 37 3691 3688 3690 3689 -1637 1636 c-901 900 -2368
2367 -3260 3258 l-1622 1622 -3691 -3688 -3690 -3688 -3690 3688 -3690 3688
-3260 -3258z"/>
</g>
</svg>
